<svg version="1.2" xmlns="http://www.w3.org/2000/svg" viewBox="0 0 800 800" width="800" height="800">
	<style>
		.s0 { fill: none;stroke: #000000;stroke-linecap: round;stroke-linejoin: round;stroke-width: 40 } 
	</style>
	<g id="Layer 1">
		<path class="s0" d="m514.75 524.75v62.63c0 8.22-1.62 16.36-4.77 23.96-3.15 7.6-7.75 14.5-13.58 20.31-5.81 5.82-12.71 10.43-20.31 13.58-7.6 3.15-15.74 4.77-23.96 4.77h-250.5c-8.23 0-16.37-1.62-23.97-4.77-7.6-3.15-14.5-7.75-20.31-13.58-5.82-5.81-10.43-12.71-13.58-20.31-3.15-7.6-4.77-15.74-4.77-23.96v-375.75c0-8.23 1.62-16.37 4.77-23.97 3.15-7.6 7.76-14.5 13.58-20.31 5.81-5.82 12.71-10.43 20.31-13.58 7.6-3.15 15.74-4.77 23.97-4.77h237.97c34.59 0 75.15 28.04 75.15 62.63v62.62"/>
		<path class="s0" d="m584 497.38l97.19-97.19-97.19-97.19"/>
		<path class="s0" d="m428 400l245.63 0.19"/>
	</g>
</svg>