<svg version="1.2" xmlns="http://www.w3.org/2000/svg" viewBox="0 0 800 800" width="800" height="800">
	<style>
		.s0 { fill: none;stroke: #000000;stroke-linecap: round;stroke-linejoin: round;stroke-width: 40 } 
		.s1 { fill: none;stroke: #000000;stroke-linecap: round;stroke-linejoin: round;stroke-width: 25 } 
		.s2 { fill: none;stroke: #000000;stroke-linecap: round;stroke-linejoin: round;stroke-width: 30 } 
	</style>
	<g id="Layer 1">
		<path class="s0" d="m249.96 381.87c12.97 11.18 29.53 18.58 47.91 18.58 18.56 0 35.14-7.4 47.92-18.58"/>
		<path class="s0" d="m439.61 381.87c12.77 11.18 29.36 18.58 47.92 18.58 18.37 0 34.93-7.4 47.91-18.58"/>
		<path class="s0" d="m389.4 478c-32.53 0-57.4 24.87-57.4 57.4h114.81c0-32.53-24.87-57.4-57.41-57.4z"/>
		<path class="s0" d="m475.56 164.06c-29.55-9.92-62.64-15.89-97.2-14.04-138.44 7.37-243.89 124.67-236.53 263.12 7.38 138.44 124.68 243.88 263.13 236.52 138.44-7.38 243.88-124.68 236.51-263.12-1.42-26.86-6.51-51.64-15.54-76.21"/>
		<path id="Layer copy" class="s1" d="m441.06 256.57l50.31-7.9-42.41 58.22 50.31-7.9"/>
		<path class="s2" d="m510.63 211.75l57.37-8.15-49.21 65.52 57.36-8.16"/>
		<path class="s2" d="m583.44 161.85l66.26-7.21-55.24 76.67 66.25-7.2"/>
	</g>
</svg>