<svg version="1.2" xmlns="http://www.w3.org/2000/svg" viewBox="0 0 800 800" width="800" height="800">
	<style>
		.s0 { fill: none;stroke: #000000;stroke-linecap: round;stroke-linejoin: round;stroke-width: 40 } 
		.s1 { fill: none;stroke: #000000;stroke-linecap: round;stroke-linejoin: round;stroke-width: 50 } 
		.s2 { fill: none;stroke: #000000;stroke-linecap: round;stroke-linejoin: round;stroke-width: 30 } 
	</style>
	<g id="Layer 1">
		<path class="s0" d="m246.49 400c13.6 11.71 30.96 19.45 50.2 19.45 19.45 0 36.82-7.74 50.2-19.45"/>
		<path class="s0" d="m442.27 400c13.39 11.71 30.75 19.45 50.2 19.45 19.25 0 36.61-7.74 50.2-19.45"/>
		<path class="s1" d="m336.69 506.48c-8.68 0-15.32 6.63-15.32 15.31h30.63c0-8.68-6.63-15.31-15.31-15.31z"/>
		<path class="s0" d="m491.64 168.24c-29.08-11.5-61.92-19.24-96.64-19.24-139.1 0-251 111.9-251 251 0 139.1 111.9 251 251 251 139.1 0 251-111.9 251-251 0-26.98-3.76-52.08-11.5-77.18"/>
		<path class="s2" d="m472.89 272.97l55-18.26-36.74 73.25 54.99-18.25"/>
		<path class="s2" d="m559.48 180.68l70.44-20.68-45.02 93.88 70.44-20.69"/>
	</g>
</svg>